<?xml version="1.0" encoding="utf-8" ?>	<!-- Generator: Assembly 2.2 - http://assemblyapp.co -->	<svg version="1.1" xmlns="http://www.w3.org/2000/svg" xmlns:xlink="http://www.w3.org/1999/xlink" width="2048.00" height="2048.00" viewBox="0 0 2048.0 2048.0">		<g id="document" transform="matrix(1,0,0,1,1024.0,1024.0)">			<g>				<g>					<path d="M-208.943,940.418 C-130.647,940.418 -67.3737,904.564 -67.3737,860.198 L-67.3737,778.669 L-159.617,759.2 C-237.914,759.2 -258.334,766.454 -320.657,860.198 L-352.824,940.418 L-208.943,940.418 Z " fill="#c97809" fill-opacity="1.00" />					<path d="M196.697,940.418 C118.401,940.418 55.1276,904.564 55.1276,860.198 L55.1276,778.669 L147.371,759.2 C225.668,759.2 246.088,766.454 308.411,860.198 L340.578,940.418 L196.697,940.418 Z " fill="#c97809" fill-opacity="1.00" />					<path d="M191.442,940.418 L191.442,-141.39 L-227.565,-141.39 L-227.565,940.418 L191.442,940.418 Z " fill="#d68921" fill-opacity="1.00" />					<path d="M-249.415,944.057 C-261.022,970.141 -270.287,1004.16 -202.247,987.756 L-21.039,944.057 C1.53414,944.057 29.8647,892.138 -21.039,892.138 L-167.675,813.828 C-178.673,794.438 -201.863,794.438 -213.149,813.828 L-249.415,944.057 Z " fill="#d68921" fill-opacity="1.00" />					<path d="M238.827,945.799 C250.434,971.883 259.698,1005.91 191.659,989.498 L10.4506,945.799 C-12.1224,945.799 -40.453,893.88 10.4506,893.88 L157.087,815.57 C168.084,796.18 191.274,796.18 202.561,815.57 L238.827,945.799 Z " fill="#d68921" fill-opacity="1.00" />					<path d="M-190.031,898.449 C-195.793,892.198 -231.786,881.094 -232.113,881.921 C-232.518,882.942 -233.97,888.631 -234.953,892.089 L-253.317,954.226 L-255.912,961.909 L-257.327,970.864 C-259.259,980.219 -274.255,999.188 -260.286,1000.11 C-260.286,1000.11 -214.042,991.996 -194.854,985.638 C-173.702,980.667 -156.846,976.705 -156.846,976.705 C-148.541,974.753 -142.325,973.184 -138.901,972.353 C-137.432,971.997 -154.112,937.421 -156.846,934.713 L-190.031,898.449 Z " fill="#954e12" fill-opacity="1.00" />				</g>				<path d="M192.86,241.324 C142.948,241.324 102.543,200.919 102.543,151.007 C102.543,101.095 142.948,60.6904 192.86,60.6904 L192.86,241.324 Z " fill="#954e12" fill-opacity="1.00" />				<g>					<path d="M-231.707,356.013 C-181.795,356.013 -141.39,315.608 -141.39,265.696 C-141.39,215.784 -181.795,175.379 -231.707,175.379 L-231.707,356.013 Z " fill="#954e12" fill-opacity="1.00" />					<path d="M-231.707,66.4436 L-231.707,146.145 C-165.555,146.145 -112.155,199.544 -112.155,265.696 C-112.155,331.848 -165.555,385.248 -231.707,385.248 L-231.707,464.949 C-121.719,464.949 -32.4542,375.683 -32.4542,265.696 C-32.4542,155.709 -121.719,66.4436 -231.707,66.4436 Z " fill="#954e12" fill-opacity="1.00" />				</g>				<path d="M192.86,356.013 L192.86,435.714 C126.708,435.714 73.3085,489.114 73.3085,555.265 C73.3085,621.417 126.708,674.817 192.86,674.817 L192.86,754.518 C82.8726,754.518 -6.39253,665.253 -6.39253,555.265 C-6.39254,445.278 82.8726,356.013 192.86,356.013 Z " fill="#954e12" fill-opacity="1.00" />				<path d="M0.417104,941.773 L-76.6824,956.682 C-37.69,917.689 -5.38345,811.212 -46.5616,753.859 C-87.7397,696.506 -194.61,754.211 -228.356,803.695 L-228.356,767.411 C-200.247,656.241 -64.4135,642.049 0.417116,706.88 C65.2477,771.711 65.2477,876.943 0.417104,941.773 Z " fill="#954e12" fill-opacity="1.00" />				<defs>					<filter id="loD6UGWk" x="0.00%" y="-2.59%" width="119.87%" height="121.03%" filterUnits="objectBoundingBox">						<feOffset dx="86.07" dy="53.50" in="SourceAlpha" result="shadowOffsetOuter1" />						<feGaussianBlur stdDeviation="37.22" in="shadowOffsetOuter1" result="shadowBlurOuter1" />						<feFlood flood-color="#457144" flood-opacity="0.39" />						<feComposite in2="shadowBlurOuter1" operator="in" />						<feMerge>							<feMergeNode />							<feMergeNode in="SourceGraphic" />						</feMerge>					</filter>				</defs>				<path d="M-5.68434e-14,-141.39 C-5.68434e-14,-364.419 -180.801,-545.22 -403.83,-545.22 C-626.859,-545.22 -807.66,-364.419 -807.66,-141.39 C-807.66,81.6393 -626.859,262.44 -403.83,262.44 C-180.801,262.44 -5.68434e-14,81.6393 -5.68434e-14,-141.39 Z " fill="#70aa7e" fill-opacity="1.00" filter="url(#loD6UGWk)" />				<defs>					<filter id="96AvltRx" x="-6.82%" y="0.00%" width="115.87%" height="112.01%" filterUnits="objectBoundingBox">						<feOffset dx="-18.61" dy="60.48" in="SourceAlpha" result="shadowOffsetOuter1" />						<feGaussianBlur stdDeviation="18.26" in="shadowOffsetOuter1" result="shadowBlurOuter1" />						<feFlood flood-color="#457144" flood-opacity="0.39" />						<feComposite in2="shadowBlurOuter1" operator="in" />						<feMerge>							<feMergeNode />							<feMergeNode in="SourceGraphic" />						</feMerge>					</filter>				</defs>				<path d="M807.66,-141.39 C807.66,-364.419 626.859,-545.22 403.83,-545.22 C180.801,-545.22 -2.27374e-13,-364.419 -2.27374e-13,-141.39 C-2.27374e-13,81.6393 180.801,262.44 403.83,262.44 C626.859,262.44 807.66,81.6393 807.66,-141.39 Z " fill="#70aa7e" fill-opacity="1.00" filter="url(#96AvltRx)" />				<path d="M385.768,-545.22 C385.768,-768.249 204.968,-949.05 -18.0616,-949.05 C-241.091,-949.05 -421.891,-768.249 -421.891,-545.22 C-421.891,-322.191 -241.091,-141.39 -18.0616,-141.39 C204.968,-141.39 385.768,-322.191 385.768,-545.22 Z " fill="#70a97d" fill-opacity="1.00" />				<g>					<g>						<defs>							<filter id="irRxNUhR" x="-24.65%" y="-48.84%" width="198.14%" height="222.33%" filterUnits="objectBoundingBox">								<feOffset dx="12.68" dy="-12.68" in="SourceAlpha" result="shadowOffsetOuter1" />								<feGaussianBlur stdDeviation="19.27" in="shadowOffsetOuter1" result="shadowBlurOuter1" />								<feFlood flood-color="#000000" flood-opacity="0.21" />								<feComposite in2="shadowBlurOuter1" operator="in" />								<feMerge>									<feMergeNode />									<feMergeNode in="SourceGraphic" />								</feMerge>							</filter>						</defs>						<path d="M-453.498,-97.7442 C-478.572,-112.221 -510.634,-103.63 -525.111,-78.5555 C-539.587,-53.4813 -530.996,-21.4191 -505.922,-6.94246 C-480.848,7.53414 -448.785,-1.05692 -434.309,-26.1311 C-419.832,-51.2053 -428.423,-83.2676 -453.498,-97.7442 Z " fill="none" filter="url(#irRxNUhR)" />						<path d="M-417.149,-96.6643 C-471.081,-127.802 -540.043,-109.324 -571.181,-55.3915 C-602.319,-1.45949 -583.84,67.5031 -529.908,98.6408 C-475.976,129.778 -407.013,111.3 -375.876,57.3679 C-344.738,3.43593 -363.217,-65.5267 -417.149,-96.6643 Z " fill="#df3634" fill-opacity="1.00" />						<defs>							<filter id="SwKgeORB" x="-18.63%" y="-18.63%" width="174.33%" height="174.33%" filterUnits="objectBoundingBox">								<feOffset dx="9.26" dy="9.26" in="SourceAlpha" result="shadowOffsetOuter1" />								<feGaussianBlur stdDeviation="14.00" in="shadowOffsetOuter1" result="shadowBlurOuter1" />								<feFlood flood-color="#ffd1d1" flood-opacity="0.29" />								<feComposite in2="shadowBlurOuter1" operator="in" />								<feMerge>									<feMergeNode />									<feMergeNode in="SourceGraphic" />								</feMerge>							</filter>						</defs>						<path d="M-406.035,-47.4431 C-430.071,-61.3202 -460.805,-53.0849 -474.682,-29.049 C-488.559,-5.01313 -480.324,25.7214 -456.288,39.5985 C-432.252,53.4756 -401.518,45.2403 -387.641,21.2045 C-373.764,-2.83139 -381.999,-33.5659 -406.035,-47.4431 Z " fill="none" filter="url(#SwKgeORB)" />						<defs>							<filter id="nct9gu0H" x="-15.57%" y="-15.57%" width="165.15%" height="165.15%" filterUnits="objectBoundingBox">								<feOffset dx="1.80" dy="1.80" in="SourceAlpha" result="shadowOffsetOuter1" />								<feGaussianBlur stdDeviation="2.42" in="shadowOffsetOuter1" result="shadowBlurOuter1" />								<feFlood flood-color="#ffd1d1" flood-opacity="0.45" />								<feComposite in2="shadowBlurOuter1" operator="in" />								<feMerge>									<feMergeNode />									<feMergeNode in="SourceGraphic" />								</feMerge>							</filter>						</defs>						<path d="M-412.085,7.40742 C-409.386,2.73133 -410.988,-3.24797 -415.664,-5.94772 C-420.34,-8.64746 -426.319,-7.04531 -429.019,-2.36922 C-431.719,2.30688 -430.117,8.28618 -425.441,10.9859 C-420.764,13.6857 -414.785,12.0835 -412.085,7.40742 Z " fill="#ffd1d1" fill-opacity="1.00" filter="url(#nct9gu0H)" />					</g>					<path d="M-412.216,70.017 C-418.839,70.7845 -424.837,72.4756 -429.745,74.6738 C-438.121,69.2175 -452.032,66.4847 -467.314,68.2559 C-486.162,70.4405 -501.388,78.6324 -506.116,88.3233 C-509.414,88.0719 -512.852,88.1082 -516.418,88.5215 C-532.549,90.3912 -541.477,91.7544 -531.494,97.7045 C-526.498,100.682 -514.893,106.569 -503.029,109.847 C-491.186,113.12 -479.085,113.785 -474.067,113.763 C-467.432,113.734 -459.392,113.307 -448.294,110.888 C-442.181,109.556 -430.015,104.942 -426.332,103.384 C-423.619,102.235 -415.146,97.5312 -411.138,94.9391 C-406.469,91.9196 -394.75,82.8738 -388.049,74.6389 C-382.501,68.4154 -393.029,67.7931 -412.216,70.017 Z " fill="#ed9b51" fill-opacity="1.00" />					<path d="M-425.855,84.0219 C-430.28,84.5348 -434.289,85.6649 -437.569,87.1339 C-443.166,83.4876 -452.462,81.6614 -462.675,82.8451 C-475.27,84.3049 -485.445,89.7793 -488.604,96.2552 C-490.808,96.0873 -493.105,96.1116 -495.488,96.3877 C-506.268,97.6371 -516.462,105.04 -509.36,107.925 C-505.674,109.422 -494.598,111.944 -487.072,112.957 C-479.56,113.968 -470.587,113.59 -467.234,113.575 C-462.8,113.555 -457.38,112.951 -449.964,111.334 C-445.879,110.444 -437.548,107.968 -435.025,106.972 C-433.212,106.256 -425.496,103.197 -422.705,101.653 C-419.38,99.8126 -411.661,96.3713 -404.419,89.9821 C-404.955,85.3598 -413.033,82.5358 -425.855,84.0219 Z " fill="#ce8441" fill-opacity="1.00" />					<defs>						<filter id="3BAWYBVc" x="-11.22%" y="-16.14%" width="146.00%" height="166.19%" filterUnits="objectBoundingBox">							<feOffset dx="4.89" dy="4.89" in="SourceAlpha" result="shadowOffsetOuter1" />							<feGaussianBlur stdDeviation="6.89" in="shadowOffsetOuter1" result="shadowBlurOuter1" />							<feFlood flood-color="#000000" flood-opacity="0.34" />							<feComposite in2="shadowBlurOuter1" operator="in" />							<feMerge>								<feMergeNode />								<feMergeNode in="SourceGraphic" />							</feMerge>						</filter>					</defs>					<path d="M-444.171,-104.1 C-452.602,-115.447 -470.167,-116.627 -483.472,-106.742 L-507.922,-88.5759 L-492.43,-67.7247 C-484,-56.378 -466.435,-55.1971 -453.13,-65.0826 L-428.679,-83.2486 L-444.171,-104.1 Z " fill="none" filter="url(#3BAWYBVc)" />					<g>						<path d="M-420.946,-157.484 L-425.533,-171.119 C-463.166,-158.46 -484.861,-118.392 -472.202,-80.7588 L-463.527,-81.7643 C-473.663,-111.898 -451.08,-147.348 -420.946,-157.484 Z " fill="#382418" fill-opacity="1.00" />						<path d="M-421.011,-157.481 C-420.301,-157.779 -421.124,-160.062 -422.055,-162.275 C-422.055,-162.275 -423.135,-164.997 -423.884,-167.368 C-424.632,-169.739 -424.441,-170.933 -425.535,-171.12 C-426.628,-171.306 -429.174,-169.788 -429.174,-169.788 C-429.884,-169.49 -429.701,-167.438 -428.77,-165.225 L-426.616,-160.105 C-425.685,-157.892 -424.286,-156.232 -423.576,-156.531 L-421.011,-157.481 Z " fill="#b18e68" fill-opacity="1.00" />					</g>				</g>				<g>					<g>						<defs>							<filter id="2jAkg9a1" x="-24.65%" y="-48.84%" width="198.14%" height="222.33%" filterUnits="objectBoundingBox">								<feOffset dx="12.68" dy="-12.68" in="SourceAlpha" result="shadowOffsetOuter1" />								<feGaussianBlur stdDeviation="19.27" in="shadowOffsetOuter1" result="shadowBlurOuter1" />								<feFlood flood-color="#000000" flood-opacity="0.21" />								<feComposite in2="shadowBlurOuter1" operator="in" />								<feMerge>									<feMergeNode />									<feMergeNode in="SourceGraphic" />								</feMerge>							</filter>						</defs>						<path d="M449.781,-96.1866 C424.706,-110.663 392.644,-102.072 378.168,-76.9979 C363.691,-51.9237 372.282,-19.8615 397.356,-5.38488 C422.43,9.09172 454.493,0.50066 468.969,-24.5735 C483.446,-49.6477 474.855,-81.71 449.781,-96.1866 Z " fill="none" filter="url(#2jAkg9a1)" />						<path d="M486.129,-95.1067 C432.197,-126.244 363.235,-107.766 332.097,-53.8339 C300.96,0.0980829 319.438,69.0607 373.37,100.198 C427.302,131.336 496.265,112.858 527.402,58.9255 C558.54,4.99351 540.061,-63.9691 486.129,-95.1067 Z " fill="#df3634" fill-opacity="1.00" />						<defs>							<filter id="JFeB8gVm" x="-18.63%" y="-18.63%" width="174.33%" height="174.33%" filterUnits="objectBoundingBox">								<feOffset dx="9.26" dy="9.26" in="SourceAlpha" result="shadowOffsetOuter1" />								<feGaussianBlur stdDeviation="14.00" in="shadowOffsetOuter1" result="shadowBlurOuter1" />								<feFlood flood-color="#ffd1d1" flood-opacity="0.29" />								<feComposite in2="shadowBlurOuter1" operator="in" />								<feMerge>									<feMergeNode />									<feMergeNode in="SourceGraphic" />								</feMerge>							</filter>						</defs>						<path d="M497.243,-45.8855 C473.207,-59.7626 442.473,-51.5273 428.596,-27.4914 C414.719,-3.45556 422.954,27.279 446.99,41.1561 C471.026,55.0332 501.76,46.7979 515.637,22.7621 C529.514,-1.27381 521.279,-32.0084 497.243,-45.8855 Z " fill="none" filter="url(#JFeB8gVm)" />						<defs>							<filter id="aWAwTjry" x="-15.57%" y="-15.57%" width="165.15%" height="165.15%" filterUnits="objectBoundingBox">								<feOffset dx="1.80" dy="1.80" in="SourceAlpha" result="shadowOffsetOuter1" />								<feGaussianBlur stdDeviation="2.42" in="shadowOffsetOuter1" result="shadowBlurOuter1" />								<feFlood flood-color="#ffd1d1" flood-opacity="0.45" />								<feComposite in2="shadowBlurOuter1" operator="in" />								<feMerge>									<feMergeNode />									<feMergeNode in="SourceGraphic" />								</feMerge>							</filter>						</defs>						<path d="M491.193,8.965 C493.892,4.28891 492.29,-1.69039 487.614,-4.39014 C482.938,-7.08988 476.959,-5.48773 474.259,-0.811639 C471.559,3.86446 473.161,9.84376 477.838,12.5435 C482.514,15.2432 488.493,13.6411 491.193,8.965 Z " fill="#ffd1d1" fill-opacity="1.00" filter="url(#aWAwTjry)" />					</g>					<path d="M491.062,71.5746 C484.44,72.3421 478.441,74.0332 473.533,76.2314 C465.157,70.7751 451.246,68.0423 435.964,69.8135 C417.116,71.9981 401.89,80.19 397.162,89.8808 C393.864,89.6295 390.426,89.6658 386.86,90.0791 C370.729,91.9488 361.801,93.312 371.784,99.2621 C376.78,102.24 388.386,108.127 400.249,111.405 C412.092,114.677 424.193,115.343 429.211,115.321 C435.846,115.291 443.887,114.865 454.984,112.446 C461.098,111.113 473.263,106.5 476.946,104.941 C479.659,103.793 488.132,99.0888 492.14,96.4967 C496.809,93.4771 508.528,84.4314 515.229,76.1964 C520.777,69.9729 510.249,69.3507 491.062,71.5746 Z " fill="#ed9b51" fill-opacity="1.00" />					<path d="M477.423,85.5795 C472.998,86.0924 468.989,87.2225 465.709,88.6915 C460.112,85.0452 450.816,83.219 440.604,84.4027 C428.008,85.8625 417.833,91.3368 414.674,97.8128 C412.47,97.6449 410.173,97.6691 407.79,97.9453 C397.01,99.1947 386.816,106.597 393.918,109.482 C397.604,110.979 408.68,113.501 416.206,114.515 C423.718,115.525 432.691,115.147 436.044,115.133 C440.478,115.113 445.898,114.508 453.314,112.892 C457.399,112.002 465.73,109.526 468.253,108.53 C470.066,107.814 477.783,104.755 480.573,103.21 C483.898,101.37 491.617,97.9289 498.859,91.5397 C498.323,86.9174 490.245,84.0934 477.423,85.5795 Z " fill="#ce8441" fill-opacity="1.00" />					<defs>						<filter id="4QJcNtGI" x="-11.22%" y="-16.14%" width="146.00%" height="166.19%" filterUnits="objectBoundingBox">							<feOffset dx="4.89" dy="4.89" in="SourceAlpha" result="shadowOffsetOuter1" />							<feGaussianBlur stdDeviation="6.89" in="shadowOffsetOuter1" result="shadowBlurOuter1" />							<feFlood flood-color="#000000" flood-opacity="0.34" />							<feComposite in2="shadowBlurOuter1" operator="in" />							<feMerge>								<feMergeNode />								<feMergeNode in="SourceGraphic" />							</feMerge>						</filter>					</defs>					<path d="M459.107,-102.542 C450.677,-113.889 433.112,-115.07 419.806,-105.184 L395.356,-87.0184 L410.848,-66.1671 C419.278,-54.8204 436.843,-53.6395 450.148,-63.525 L474.599,-81.691 L459.107,-102.542 Z " fill="none" filter="url(#4QJcNtGI)" />					<g>						<path d="M482.332,-155.926 L477.745,-169.561 C440.112,-156.903 418.417,-116.834 431.076,-79.2012 L439.751,-80.2067 C429.615,-110.34 452.198,-145.79 482.332,-155.926 Z " fill="#382418" fill-opacity="1.00" />						<path d="M482.268,-155.923 C482.977,-156.222 482.154,-158.504 481.223,-160.717 C481.223,-160.717 480.143,-163.44 479.394,-165.811 C478.646,-168.181 478.837,-169.376 477.744,-169.562 C476.65,-169.748 474.104,-168.231 474.104,-168.231 C473.394,-167.932 473.577,-165.881 474.508,-163.667 L476.662,-158.547 C477.593,-156.334 478.992,-154.675 479.702,-154.973 L482.268,-155.923 Z " fill="#b18e68" fill-opacity="1.00" />					</g>				</g>				<g>					<g>						<defs>							<filter id="J1RSu3UH" x="-24.65%" y="-48.84%" width="198.14%" height="222.33%" filterUnits="objectBoundingBox">								<feOffset dx="12.68" dy="-12.68" in="SourceAlpha" result="shadowOffsetOuter1" />								<feGaussianBlur stdDeviation="19.27" in="shadowOffsetOuter1" result="shadowBlurOuter1" />								<feFlood flood-color="#000000" flood-opacity="0.21" />								<feComposite in2="shadowBlurOuter1" operator="in" />								<feMerge>									<feMergeNode />									<feMergeNode in="SourceGraphic" />								</feMerge>							</filter>						</defs>						<path d="M0.728724,-614.279 C-24.3455,-628.756 -56.4077,-620.165 -70.8843,-595.091 C-85.3609,-570.017 -76.7699,-537.954 -51.6957,-523.478 C-26.6215,-509.001 5.44079,-517.592 19.9174,-542.666 C34.394,-567.741 25.8029,-599.803 0.728724,-614.279 Z " fill="none" filter="url(#J1RSu3UH)" />						<path d="M37.0776,-613.2 C-16.8544,-644.337 -85.817,-625.859 -116.955,-571.927 C-148.092,-517.995 -129.614,-449.032 -75.6819,-417.895 C-21.7499,-386.757 47.2127,-405.235 78.3504,-459.167 C109.488,-513.099 91.0096,-582.062 37.0776,-613.2 Z " fill="#df3634" fill-opacity="1.00" />						<defs>							<filter id="GlDK8hke" x="-18.63%" y="-18.63%" width="174.33%" height="174.33%" filterUnits="objectBoundingBox">								<feOffset dx="9.26" dy="9.26" in="SourceAlpha" result="shadowOffsetOuter1" />								<feGaussianBlur stdDeviation="14.00" in="shadowOffsetOuter1" result="shadowBlurOuter1" />								<feFlood flood-color="#ffd1d1" flood-opacity="0.29" />								<feComposite in2="shadowBlurOuter1" operator="in" />								<feMerge>									<feMergeNode />									<feMergeNode in="SourceGraphic" />								</feMerge>							</filter>						</defs>						<path d="M48.1914,-563.978 C24.1555,-577.855 -6.57902,-569.62 -20.4561,-545.584 C-34.3332,-521.548 -26.098,-490.814 -2.06208,-476.937 C21.9738,-463.06 52.7083,-471.295 66.5854,-495.331 C80.4626,-519.367 72.2273,-550.101 48.1914,-563.978 Z " fill="none" filter="url(#GlDK8hke)" />						<defs>							<filter id="Y0SEhjrs" x="-15.57%" y="-15.57%" width="165.15%" height="165.15%" filterUnits="objectBoundingBox">								<feOffset dx="1.80" dy="1.80" in="SourceAlpha" result="shadowOffsetOuter1" />								<feGaussianBlur stdDeviation="2.42" in="shadowOffsetOuter1" result="shadowBlurOuter1" />								<feFlood flood-color="#ffd1d1" flood-opacity="0.45" />								<feComposite in2="shadowBlurOuter1" operator="in" />								<feMerge>									<feMergeNode />									<feMergeNode in="SourceGraphic" />								</feMerge>							</filter>						</defs>						<path d="M42.1408,-509.128 C44.8406,-513.804 43.2384,-519.783 38.5623,-522.483 C33.8862,-525.183 27.9069,-523.581 25.2072,-518.905 C22.5074,-514.228 24.1096,-508.249 28.7857,-505.549 C33.4618,-502.85 39.4411,-504.452 42.1408,-509.128 Z " fill="#ffd1d1" fill-opacity="1.00" filter="url(#Y0SEhjrs)" />					</g>					<path d="M42.0099,-446.518 C35.3877,-445.751 29.3888,-444.06 24.4811,-441.861 C16.1051,-447.318 2.19393,-450.051 -13.0881,-448.279 C-31.9358,-446.095 -47.162,-437.903 -51.8895,-428.212 C-55.1882,-428.463 -58.6256,-428.427 -62.1914,-428.014 C-78.3224,-426.144 -87.2511,-424.781 -77.268,-418.831 C-72.2722,-415.853 -60.6663,-409.966 -48.8028,-406.688 C-36.9595,-403.416 -24.8586,-402.75 -19.8409,-402.772 C-13.206,-402.802 -5.16534,-403.228 5.93199,-405.647 C12.0457,-406.98 24.2112,-411.593 27.8944,-413.152 C30.6076,-414.3 39.0801,-419.004 43.0881,-421.596 C47.7571,-424.616 59.4761,-433.662 66.1772,-441.896 C71.7252,-448.12 61.1972,-448.742 42.0099,-446.518 Z " fill="#ed9b51" fill-opacity="1.00" />					<path d="M28.3714,-432.513 C23.946,-432 19.9372,-430.87 16.6576,-429.401 C11.0603,-433.048 1.76402,-434.874 -8.4483,-433.69 C-21.0435,-432.23 -31.2185,-426.756 -34.3777,-420.28 C-36.5821,-420.448 -38.8792,-420.424 -41.262,-420.148 C-52.0417,-418.898 -62.236,-411.496 -55.1336,-408.611 C-51.4482,-407.114 -40.3718,-404.592 -32.8462,-403.578 C-25.3342,-402.568 -16.361,-402.945 -13.0078,-402.96 C-8.57398,-402.98 -3.15387,-403.584 4.26201,-405.201 C8.34754,-406.091 16.6785,-408.567 19.201,-409.563 C21.0138,-410.279 28.7307,-413.338 31.5215,-414.882 C34.8464,-416.723 42.5649,-420.164 49.8071,-426.553 C49.2713,-431.175 41.1935,-434 28.3714,-432.513 Z " fill="#ce8441" fill-opacity="1.00" />					<defs>						<filter id="SyqJ9W4n" x="-11.22%" y="-16.14%" width="146.00%" height="166.19%" filterUnits="objectBoundingBox">							<feOffset dx="4.89" dy="4.89" in="SourceAlpha" result="shadowOffsetOuter1" />							<feGaussianBlur stdDeviation="6.89" in="shadowOffsetOuter1" result="shadowBlurOuter1" />							<feFlood flood-color="#000000" flood-opacity="0.34" />							<feComposite in2="shadowBlurOuter1" operator="in" />							<feMerge>								<feMergeNode />								<feMergeNode in="SourceGraphic" />							</feMerge>						</filter>					</defs>					<path d="M10.055,-620.635 C1.62465,-631.982 -15.9403,-633.163 -29.2457,-623.277 L-53.6961,-605.111 L-38.2042,-584.26 C-29.7739,-572.913 -12.2089,-571.732 1.09643,-581.618 L25.5468,-599.784 L10.055,-620.635 Z " fill="none" filter="url(#SyqJ9W4n)" />					<g>						<path d="M33.28,-674.019 L28.6935,-687.654 C-8.93951,-674.995 -30.6349,-634.927 -17.9762,-597.294 L-9.30069,-598.3 C-19.4368,-628.433 3.14631,-663.883 33.28,-674.019 Z " fill="#382418" fill-opacity="1.00" />						<path d="M33.2157,-674.016 C33.9255,-674.315 33.1025,-676.597 32.1715,-678.81 C32.1715,-678.81 31.0907,-681.532 30.3424,-683.903 C29.594,-686.274 29.7853,-687.469 28.6917,-687.655 C27.598,-687.841 25.0522,-686.324 25.0522,-686.324 C24.3424,-686.025 24.5255,-683.973 25.4565,-681.76 L27.6101,-676.64 C28.5411,-674.427 29.9401,-672.767 30.6498,-673.066 L33.2157,-674.016 Z " fill="#b18e68" fill-opacity="1.00" />					</g>				</g>			</g>		</g>	</svg>