<?xml version="1.0" encoding="utf-8" ?>	<!-- Generator: Assembly 2.2 - http://assemblyapp.co -->	<svg version="1.1" xmlns="http://www.w3.org/2000/svg" xmlns:xlink="http://www.w3.org/1999/xlink" width="2048.00" height="2048.00" viewBox="0 0 2048.0 2048.0">		<g id="document" transform="matrix(1,0,0,1,1024.0,1024.0)">			<g>				<g>					<path d="M-208.943,940.418 C-130.647,940.418 -67.3737,904.564 -67.3737,860.198 L-67.3737,778.669 L-159.617,759.2 C-237.914,759.2 -258.334,766.454 -320.657,860.198 L-352.824,940.418 L-208.943,940.418 Z " fill="#c97809" fill-opacity="1.00" />					<path d="M196.697,940.418 C118.401,940.418 55.1276,904.564 55.1276,860.198 L55.1276,778.669 L147.371,759.2 C225.668,759.2 246.088,766.454 308.411,860.198 L340.578,940.418 L196.697,940.418 Z " fill="#c97809" fill-opacity="1.00" />					<path d="M191.442,940.418 L191.442,-141.39 L-227.565,-141.39 L-227.565,940.418 L191.442,940.418 Z " fill="#d68921" fill-opacity="1.00" />					<path d="M-249.415,944.057 C-261.022,970.141 -270.287,1004.16 -202.247,987.756 L-21.039,944.057 C1.53414,944.057 29.8647,892.138 -21.039,892.138 L-167.675,813.828 C-178.673,794.438 -201.863,794.438 -213.149,813.828 L-249.415,944.057 Z " fill="#d68921" fill-opacity="1.00" />					<path d="M238.827,945.799 C250.434,971.883 259.698,1005.91 191.659,989.498 L10.4506,945.799 C-12.1224,945.799 -40.453,893.88 10.4506,893.88 L157.087,815.57 C168.084,796.18 191.274,796.18 202.561,815.57 L238.827,945.799 Z " fill="#d68921" fill-opacity="1.00" />					<path d="M-190.031,898.449 C-195.793,892.198 -231.786,881.094 -232.113,881.921 C-232.518,882.942 -233.97,888.631 -234.953,892.089 L-253.317,954.226 L-255.912,961.909 L-257.327,970.864 C-259.259,980.219 -274.255,999.188 -260.286,1000.11 C-260.286,1000.11 -214.042,991.996 -194.854,985.638 C-173.702,980.667 -156.846,976.705 -156.846,976.705 C-148.541,974.753 -142.325,973.184 -138.901,972.353 C-137.432,971.997 -154.112,937.421 -156.846,934.713 L-190.031,898.449 Z " fill="#954e12" fill-opacity="1.00" />				</g>				<path d="M192.86,241.324 C142.948,241.324 102.543,200.919 102.543,151.007 C102.543,101.095 142.948,60.6904 192.86,60.6904 L192.86,241.324 Z " fill="#954e12" fill-opacity="1.00" />				<g>					<path d="M-231.707,356.013 C-181.795,356.013 -141.39,315.608 -141.39,265.696 C-141.39,215.784 -181.795,175.379 -231.707,175.379 L-231.707,356.013 Z " fill="#954e12" fill-opacity="1.00" />					<path d="M-231.707,66.4436 L-231.707,146.145 C-165.555,146.145 -112.155,199.544 -112.155,265.696 C-112.155,331.848 -165.555,385.248 -231.707,385.248 L-231.707,464.949 C-121.719,464.949 -32.4542,375.683 -32.4542,265.696 C-32.4542,155.709 -121.719,66.4436 -231.707,66.4436 Z " fill="#954e12" fill-opacity="1.00" />				</g>				<path d="M192.86,356.013 L192.86,435.714 C126.708,435.714 73.3085,489.114 73.3085,555.265 C73.3085,621.417 126.708,674.817 192.86,674.817 L192.86,754.518 C82.8726,754.518 -6.39253,665.253 -6.39253,555.265 C-6.39254,445.278 82.8726,356.013 192.86,356.013 Z " fill="#954e12" fill-opacity="1.00" />				<path d="M0.417104,941.773 L-76.6824,956.682 C-37.69,917.689 -5.38345,811.212 -46.5616,753.859 C-87.7397,696.506 -194.61,754.211 -228.356,803.695 L-228.356,767.411 C-200.247,656.241 -64.4135,642.049 0.417116,706.88 C65.2477,771.711 65.2477,876.943 0.417104,941.773 Z " fill="#954e12" fill-opacity="1.00" />				<defs>					<filter id="gOEJNteM" x="0.00%" y="-2.59%" width="119.87%" height="121.03%" filterUnits="objectBoundingBox">						<feOffset dx="86.07" dy="53.50" in="SourceAlpha" result="shadowOffsetOuter1" />						<feGaussianBlur stdDeviation="37.22" in="shadowOffsetOuter1" result="shadowBlurOuter1" />						<feFlood flood-color="#457144" flood-opacity="0.39" />						<feComposite in2="shadowBlurOuter1" operator="in" />						<feMerge>							<feMergeNode />							<feMergeNode in="SourceGraphic" />						</feMerge>					</filter>				</defs>				<path d="M-5.68434e-14,-141.39 C-5.68434e-14,-364.419 -180.801,-545.22 -403.83,-545.22 C-626.859,-545.22 -807.66,-364.419 -807.66,-141.39 C-807.66,81.6393 -626.859,262.44 -403.83,262.44 C-180.801,262.44 -5.68434e-14,81.6393 -5.68434e-14,-141.39 Z " fill="#70aa7e" fill-opacity="1.00" filter="url(#gOEJNteM)" />				<defs>					<filter id="0saBldl7" x="-6.82%" y="0.00%" width="115.87%" height="112.01%" filterUnits="objectBoundingBox">						<feOffset dx="-18.61" dy="60.48" in="SourceAlpha" result="shadowOffsetOuter1" />						<feGaussianBlur stdDeviation="18.26" in="shadowOffsetOuter1" result="shadowBlurOuter1" />						<feFlood flood-color="#457144" flood-opacity="0.39" />						<feComposite in2="shadowBlurOuter1" operator="in" />						<feMerge>							<feMergeNode />							<feMergeNode in="SourceGraphic" />						</feMerge>					</filter>				</defs>				<path d="M807.66,-141.39 C807.66,-364.419 626.859,-545.22 403.83,-545.22 C180.801,-545.22 -2.27374e-13,-364.419 -2.27374e-13,-141.39 C-2.27374e-13,81.6393 180.801,262.44 403.83,262.44 C626.859,262.44 807.66,81.6393 807.66,-141.39 Z " fill="#70aa7e" fill-opacity="1.00" filter="url(#0saBldl7)" />				<path d="M385.768,-545.22 C385.768,-768.249 204.968,-949.05 -18.0616,-949.05 C-241.091,-949.05 -421.891,-768.249 -421.891,-545.22 C-421.891,-322.191 -241.091,-141.39 -18.0616,-141.39 C204.968,-141.39 385.768,-322.191 385.768,-545.22 Z " fill="#70a97d" fill-opacity="1.00" />				<g>					<g>						<path d="M-491.522,0 C-491.522,-38.3004 -522.571,-69.349 -560.871,-69.349 C-599.172,-69.349 -630.22,-38.3004 -630.22,0 C-630.22,38.3004 -599.172,69.349 -560.871,69.349 C-522.571,69.349 -491.522,38.3004 -491.522,0 Z " fill="#df3634" fill-opacity="1.00" />						<defs>							<filter id="I4zVe8wm" x="-18.64%" y="-18.64%" width="174.35%" height="174.35%" filterUnits="objectBoundingBox">								<feOffset dx="5.70" dy="5.70" in="SourceAlpha" result="shadowOffsetOuter1" />								<feGaussianBlur stdDeviation="8.61" in="shadowOffsetOuter1" result="shadowBlurOuter1" />								<feFlood flood-color="#ffd1d1" flood-opacity="0.33" />								<feComposite in2="shadowBlurOuter1" operator="in" />								<feMerge>									<feMergeNode />									<feMergeNode in="SourceGraphic" />								</feMerge>							</filter>						</defs>						<path d="M-550.164,-9.38978 C-550.164,-26.4591 -564.001,-40.2965 -581.071,-40.2965 C-598.14,-40.2965 -611.978,-26.4591 -611.978,-9.38978 C-611.978,7.67956 -598.14,21.517 -581.071,21.517 C-564.001,21.517 -550.164,7.67956 -550.164,-9.38978 Z " fill="none" filter="url(#I4zVe8wm)" />						<defs>							<filter id="0crSq27H" x="-24.65%" y="-48.85%" width="198.15%" height="222.35%" filterUnits="objectBoundingBox">								<feOffset dx="7.80" dy="-7.80" in="SourceAlpha" result="shadowOffsetOuter1" />								<feGaussianBlur stdDeviation="11.85" in="shadowOffsetOuter1" result="shadowBlurOuter1" />								<feFlood flood-color="#000000" flood-opacity="0.21" />								<feComposite in2="shadowBlurOuter1" operator="in" />								<feMerge>									<feMergeNode />									<feMergeNode in="SourceGraphic" />								</feMerge>							</filter>						</defs>						<path d="M-503.241,-21.195 C-503.241,-39.0017 -517.676,-53.4369 -535.483,-53.4369 C-553.29,-53.4369 -567.725,-39.0017 -567.725,-21.195 C-567.725,-3.38824 -553.29,11.047 -535.483,11.047 C-517.676,11.047 -503.241,-3.38824 -503.241,-21.195 Z " fill="none" filter="url(#0crSq27H)" />						<defs>							<filter id="KI6pGRzm" x="-15.57%" y="-15.57%" width="165.16%" height="165.16%" filterUnits="objectBoundingBox">								<feOffset dx="1.11" dy="1.11" in="SourceAlpha" result="shadowOffsetOuter1" />								<feGaussianBlur stdDeviation="1.49" in="shadowOffsetOuter1" result="shadowBlurOuter1" />								<feFlood flood-color="#ffd1d1" flood-opacity="0.45" />								<feComposite in2="shadowBlurOuter1" operator="in" />								<feMerge>									<feMergeNode />									<feMergeNode in="SourceGraphic" />								</feMerge>							</filter>						</defs>						<path d="M-581.071,-3.37697 C-577.75,-3.37697 -575.058,-6.069 -575.058,-9.38978 C-575.058,-12.7106 -577.75,-15.4026 -581.071,-15.4026 C-584.392,-15.4026 -587.084,-12.7106 -587.084,-9.38978 C-587.084,-6.069 -584.392,-3.37697 -581.071,-3.37697 Z " fill="#ffd1d1" fill-opacity="1.00" filter="url(#KI6pGRzm)" />					</g>					<g>						<path d="M-352.824,45.975 C-352.824,7.67462 -383.873,-23.374 -422.173,-23.374 C-460.474,-23.374 -491.522,7.67462 -491.522,45.975 C-491.522,84.2754 -460.474,115.324 -422.173,115.324 C-383.873,115.324 -352.824,84.2754 -352.824,45.975 Z " fill="#df3634" fill-opacity="1.00" />						<defs>							<filter id="kClL2jdZ" x="-18.64%" y="-18.64%" width="174.35%" height="174.35%" filterUnits="objectBoundingBox">								<feOffset dx="5.70" dy="5.70" in="SourceAlpha" result="shadowOffsetOuter1" />								<feGaussianBlur stdDeviation="8.61" in="shadowOffsetOuter1" result="shadowBlurOuter1" />								<feFlood flood-color="#ffd1d1" flood-opacity="0.33" />								<feComposite in2="shadowBlurOuter1" operator="in" />								<feMerge>									<feMergeNode />									<feMergeNode in="SourceGraphic" />								</feMerge>							</filter>						</defs>						<path d="M-411.466,36.5853 C-411.466,19.5159 -425.303,5.67848 -442.373,5.67848 C-459.442,5.67848 -473.279,19.5159 -473.279,36.5853 C-473.279,53.6546 -459.442,67.492 -442.373,67.492 C-425.303,67.492 -411.466,53.6546 -411.466,36.5853 Z " fill="none" filter="url(#kClL2jdZ)" />						<defs>							<filter id="PphIe0m7" x="-24.65%" y="-48.85%" width="198.15%" height="222.35%" filterUnits="objectBoundingBox">								<feOffset dx="7.80" dy="-7.80" in="SourceAlpha" result="shadowOffsetOuter1" />								<feGaussianBlur stdDeviation="11.85" in="shadowOffsetOuter1" result="shadowBlurOuter1" />								<feFlood flood-color="#000000" flood-opacity="0.21" />								<feComposite in2="shadowBlurOuter1" operator="in" />								<feMerge>									<feMergeNode />									<feMergeNode in="SourceGraphic" />								</feMerge>							</filter>						</defs>						<path d="M-364.543,24.7801 C-364.543,6.97335 -378.978,-7.46185 -396.785,-7.46185 C-414.592,-7.46185 -429.027,6.97335 -429.027,24.7801 C-429.027,42.5868 -414.592,57.022 -396.785,57.022 C-378.978,57.022 -364.543,42.5868 -364.543,24.7801 Z " fill="none" filter="url(#PphIe0m7)" />						<defs>							<filter id="dA4xr4dz" x="-15.57%" y="-15.57%" width="165.16%" height="165.16%" filterUnits="objectBoundingBox">								<feOffset dx="1.11" dy="1.11" in="SourceAlpha" result="shadowOffsetOuter1" />								<feGaussianBlur stdDeviation="1.49" in="shadowOffsetOuter1" result="shadowBlurOuter1" />								<feFlood flood-color="#ffd1d1" flood-opacity="0.45" />								<feComposite in2="shadowBlurOuter1" operator="in" />								<feMerge>									<feMergeNode />									<feMergeNode in="SourceGraphic" />								</feMerge>							</filter>						</defs>						<path d="M-442.373,42.5981 C-439.052,42.5981 -436.36,39.906 -436.36,36.5853 C-436.36,33.2645 -439.052,30.5724 -442.373,30.5724 C-445.693,30.5724 -448.385,33.2645 -448.385,36.5853 C-448.385,39.906 -445.693,42.5981 -442.373,42.5981 Z " fill="#ffd1d1" fill-opacity="1.00" filter="url(#dA4xr4dz)" />					</g>					<g>						<path d="M-490.52,-95.0765 L-467.289,-160.526 L-447.672,-155.476 L-467.289,-95.0765 C-483.513,-66.1985 -483.817,-38.1615 -521.969,-23.2219 L-534.83,-46.1388 C-512.638,-40.7901 -499.576,-77.7223 -490.52,-95.0765 Z " fill="#382418" fill-opacity="1.00" />						<path d="M-393.915,-53.3919 L-429.281,-147.225 L-408.397,-152.424 L-377.079,-69.3974 C-368.94,-37.29 -349.843,-16.76 -367.201,20.3544 L-392.312,12.6064 C-372.543,1.19267 -388.522,-34.5745 -393.915,-53.3919 Z " fill="#382418" fill-opacity="1.00" />						<path d="M-518.427,-204.804 C-523.479,-189.016 -521.784,-195.394 -526.642,-180.214 C-528.196,-175.356 -525.937,-171.956 -524.116,-171.373 C-497.732,-165.624 -476.574,-157.45 -451.72,-150.172 C-421.292,-141.261 -410.745,-142.207 -381.057,-136.435 C-378.021,-135.464 -374.121,-141.796 -373.402,-145.553 C-371.497,-155.506 -372.619,-149.283 -370.876,-157.59 C-369.828,-162.581 -371.191,-167.062 -373.402,-166.431 C-401.09,-171.944 -423.533,-177.117 -450.25,-185.666 C-473.542,-194.458 -487.314,-199.534 -511.238,-210.536 C-513.667,-211.313 -517.067,-209.054 -518.427,-204.804 Z " fill="#382418" fill-opacity="1.00" />						<path d="M-521.044,-173.244 C-518.919,-178.647 -514.036,-193.052 -510.509,-206.139 C-510.22,-207.028 -510.678,-210.286 -511.292,-210.569 C-513.72,-211.346 -517.121,-209.087 -518.481,-204.836 C-523.532,-189.049 -521.838,-195.427 -526.695,-180.247 C-528.25,-175.389 -525.991,-171.989 -524.169,-171.406 C-523.434,-171.246 -521.898,-172.42 -521.044,-173.244 Z " fill="#b18e68" fill-opacity="1.00" />						<defs>							<filter id="Rm8Pz6dy" x="0.00%" y="-1.42%" width="101.35%" height="104.27%" filterUnits="objectBoundingBox">								<feOffset dx="1.37" dy="0.00" in="SourceAlpha" result="shadowOffsetOuter1" />								<feGaussianBlur stdDeviation="0.35" in="shadowOffsetOuter1" result="shadowBlurOuter1" />								<feFlood flood-color="#7f5944" flood-opacity="0.24" />								<feComposite in2="shadowBlurOuter1" operator="in" />								<feMerge>									<feMergeNode />									<feMergeNode in="SourceGraphic" />								</feMerge>							</filter>						</defs>						<path d="M-525.013,-185.18 C-525.102,-184.616 -528.005,-177.939 -526.701,-174.499 C-526.374,-173.638 -525.603,-171.786 -523.111,-171.164 C-521.118,-170.712 -518.267,-170.06 -515.769,-169.5 C-510.013,-168.208 -503.63,-166.2 -502.836,-165.984 C-486.701,-161.6 -460.303,-152.48 -438.753,-146.776 C-416.647,-140.923 -399.992,-141.192 -379.97,-136.423 C-376.764,-137.818 -377.105,-137.828 -375.838,-140.139 C-374.992,-141.681 -374.722,-141.697 -373.855,-144.003 C-397.544,-149.418 -413.674,-147.568 -435.857,-153.549 C-455.685,-161.679 -482.108,-168.621 -502.426,-178.667 C-507.978,-180.252 -524.959,-185.664 -525.013,-185.18 Z " fill="none" filter="url(#Rm8Pz6dy)" />					</g>				</g>				<g>					<g>						<path d="M403.83,0 C403.83,-38.3004 372.781,-69.349 334.481,-69.349 C296.18,-69.349 265.132,-38.3004 265.132,0 C265.132,38.3004 296.18,69.349 334.481,69.349 C372.781,69.349 403.83,38.3004 403.83,0 Z " fill="#df3634" fill-opacity="1.00" />						<defs>							<filter id="jBiERZk2" x="-18.64%" y="-18.64%" width="174.35%" height="174.35%" filterUnits="objectBoundingBox">								<feOffset dx="5.70" dy="5.70" in="SourceAlpha" result="shadowOffsetOuter1" />								<feGaussianBlur stdDeviation="8.61" in="shadowOffsetOuter1" result="shadowBlurOuter1" />								<feFlood flood-color="#ffd1d1" flood-opacity="0.33" />								<feComposite in2="shadowBlurOuter1" operator="in" />								<feMerge>									<feMergeNode />									<feMergeNode in="SourceGraphic" />								</feMerge>							</filter>						</defs>						<path d="M345.188,-9.38978 C345.188,-26.4591 331.351,-40.2965 314.281,-40.2965 C297.212,-40.2965 283.375,-26.4591 283.375,-9.38978 C283.375,7.67956 297.212,21.517 314.281,21.517 C331.351,21.517 345.188,7.67956 345.188,-9.38978 Z " fill="none" filter="url(#jBiERZk2)" />						<defs>							<filter id="9dbeXh2V" x="-24.65%" y="-48.85%" width="198.15%" height="222.35%" filterUnits="objectBoundingBox">								<feOffset dx="7.80" dy="-7.80" in="SourceAlpha" result="shadowOffsetOuter1" />								<feGaussianBlur stdDeviation="11.85" in="shadowOffsetOuter1" result="shadowBlurOuter1" />								<feFlood flood-color="#000000" flood-opacity="0.21" />								<feComposite in2="shadowBlurOuter1" operator="in" />								<feMerge>									<feMergeNode />									<feMergeNode in="SourceGraphic" />								</feMerge>							</filter>						</defs>						<path d="M392.111,-21.195 C392.111,-39.0017 377.676,-53.4369 359.869,-53.4369 C342.062,-53.4369 327.627,-39.0017 327.627,-21.195 C327.627,-3.38824 342.062,11.047 359.869,11.047 C377.676,11.047 392.111,-3.38824 392.111,-21.195 Z " fill="none" filter="url(#9dbeXh2V)" />						<defs>							<filter id="HaXAyq1B" x="-15.57%" y="-15.57%" width="165.16%" height="165.16%" filterUnits="objectBoundingBox">								<feOffset dx="1.11" dy="1.11" in="SourceAlpha" result="shadowOffsetOuter1" />								<feGaussianBlur stdDeviation="1.49" in="shadowOffsetOuter1" result="shadowBlurOuter1" />								<feFlood flood-color="#ffd1d1" flood-opacity="0.45" />								<feComposite in2="shadowBlurOuter1" operator="in" />								<feMerge>									<feMergeNode />									<feMergeNode in="SourceGraphic" />								</feMerge>							</filter>						</defs>						<path d="M314.281,-3.37697 C317.602,-3.37697 320.294,-6.069 320.294,-9.38978 C320.294,-12.7106 317.602,-15.4026 314.281,-15.4026 C310.961,-15.4026 308.269,-12.7106 308.269,-9.38978 C308.269,-6.069 310.961,-3.37697 314.281,-3.37697 Z " fill="#ffd1d1" fill-opacity="1.00" filter="url(#HaXAyq1B)" />					</g>					<g>						<path d="M542.528,45.975 C542.528,7.67462 511.479,-23.374 473.179,-23.374 C434.879,-23.374 403.83,7.67462 403.83,45.975 C403.83,84.2754 434.879,115.324 473.179,115.324 C511.479,115.324 542.528,84.2754 542.528,45.975 Z " fill="#df3634" fill-opacity="1.00" />						<defs>							<filter id="ebAF2ioe" x="-18.64%" y="-18.64%" width="174.35%" height="174.35%" filterUnits="objectBoundingBox">								<feOffset dx="5.70" dy="5.70" in="SourceAlpha" result="shadowOffsetOuter1" />								<feGaussianBlur stdDeviation="8.61" in="shadowOffsetOuter1" result="shadowBlurOuter1" />								<feFlood flood-color="#ffd1d1" flood-opacity="0.33" />								<feComposite in2="shadowBlurOuter1" operator="in" />								<feMerge>									<feMergeNode />									<feMergeNode in="SourceGraphic" />								</feMerge>							</filter>						</defs>						<path d="M483.886,36.5853 C483.886,19.5159 470.049,5.67848 452.979,5.67848 C435.91,5.67848 422.073,19.5159 422.073,36.5853 C422.073,53.6546 435.91,67.492 452.979,67.492 C470.049,67.492 483.886,53.6546 483.886,36.5853 Z " fill="none" filter="url(#ebAF2ioe)" />						<defs>							<filter id="8Jaz5M2r" x="-24.65%" y="-48.85%" width="198.15%" height="222.35%" filterUnits="objectBoundingBox">								<feOffset dx="7.80" dy="-7.80" in="SourceAlpha" result="shadowOffsetOuter1" />								<feGaussianBlur stdDeviation="11.85" in="shadowOffsetOuter1" result="shadowBlurOuter1" />								<feFlood flood-color="#000000" flood-opacity="0.21" />								<feComposite in2="shadowBlurOuter1" operator="in" />								<feMerge>									<feMergeNode />									<feMergeNode in="SourceGraphic" />								</feMerge>							</filter>						</defs>						<path d="M530.809,24.7801 C530.809,6.97335 516.374,-7.46185 498.567,-7.46185 C480.76,-7.46185 466.325,6.97335 466.325,24.7801 C466.325,42.5868 480.76,57.022 498.567,57.022 C516.374,57.022 530.809,42.5868 530.809,24.7801 Z " fill="none" filter="url(#8Jaz5M2r)" />						<defs>							<filter id="a3xBjWwx" x="-15.57%" y="-15.57%" width="165.16%" height="165.16%" filterUnits="objectBoundingBox">								<feOffset dx="1.11" dy="1.11" in="SourceAlpha" result="shadowOffsetOuter1" />								<feGaussianBlur stdDeviation="1.49" in="shadowOffsetOuter1" result="shadowBlurOuter1" />								<feFlood flood-color="#ffd1d1" flood-opacity="0.45" />								<feComposite in2="shadowBlurOuter1" operator="in" />								<feMerge>									<feMergeNode />									<feMergeNode in="SourceGraphic" />								</feMerge>							</filter>						</defs>						<path d="M452.979,42.5981 C456.3,42.5981 458.992,39.906 458.992,36.5853 C458.992,33.2645 456.3,30.5724 452.979,30.5724 C449.659,30.5724 446.967,33.2645 446.967,36.5853 C446.967,39.906 449.659,42.5981 452.979,42.5981 Z " fill="#ffd1d1" fill-opacity="1.00" filter="url(#a3xBjWwx)" />					</g>					<g>						<path d="M404.833,-95.0765 L428.063,-160.526 L447.68,-155.476 L428.063,-95.0765 C411.84,-66.1985 411.535,-38.1615 373.383,-23.2219 L360.522,-46.1388 C382.714,-40.7901 395.776,-77.7223 404.833,-95.0765 Z " fill="#382418" fill-opacity="1.00" />						<path d="M501.437,-53.3919 L466.071,-147.225 L486.955,-152.424 L518.273,-69.3974 C526.412,-37.29 545.509,-16.76 528.151,20.3544 L503.04,12.6064 C522.809,1.19267 506.83,-34.5745 501.437,-53.3919 Z " fill="#382418" fill-opacity="1.00" />						<path d="M376.925,-204.804 C371.873,-189.016 373.568,-195.394 368.71,-180.214 C367.156,-175.356 369.415,-171.956 371.236,-171.373 C397.62,-165.624 418.778,-157.45 443.632,-150.172 C474.06,-141.261 484.607,-142.207 514.295,-136.435 C517.331,-135.464 521.231,-141.796 521.95,-145.553 C523.855,-155.506 522.733,-149.283 524.477,-157.59 C525.524,-162.581 524.161,-167.062 521.95,-166.431 C494.262,-171.944 471.819,-177.117 445.102,-185.666 C421.81,-194.458 408.038,-199.534 384.114,-210.536 C381.685,-211.313 378.285,-209.054 376.925,-204.804 Z " fill="#382418" fill-opacity="1.00" />						<path d="M374.308,-173.244 C376.433,-178.647 381.316,-193.052 384.843,-206.139 C385.132,-207.028 384.674,-210.286 384.061,-210.569 C381.632,-211.346 378.231,-209.087 376.871,-204.836 C371.82,-189.049 373.514,-195.427 368.657,-180.247 C367.102,-175.389 369.361,-171.989 371.183,-171.406 C371.918,-171.246 373.454,-172.42 374.308,-173.244 Z " fill="#b18e68" fill-opacity="1.00" />						<defs>							<filter id="iRbTaM30" x="0.00%" y="-1.42%" width="101.35%" height="104.27%" filterUnits="objectBoundingBox">								<feOffset dx="1.37" dy="0.00" in="SourceAlpha" result="shadowOffsetOuter1" />								<feGaussianBlur stdDeviation="0.35" in="shadowOffsetOuter1" result="shadowBlurOuter1" />								<feFlood flood-color="#7f5944" flood-opacity="0.24" />								<feComposite in2="shadowBlurOuter1" operator="in" />								<feMerge>									<feMergeNode />									<feMergeNode in="SourceGraphic" />								</feMerge>							</filter>						</defs>						<path d="M370.339,-185.18 C370.25,-184.616 367.347,-177.939 368.651,-174.499 C368.978,-173.638 369.749,-171.786 372.241,-171.164 C374.234,-170.712 377.085,-170.06 379.583,-169.5 C385.339,-168.208 391.722,-166.2 392.517,-165.984 C408.651,-161.6 435.049,-152.48 456.599,-146.776 C478.706,-140.923 495.361,-141.192 515.382,-136.423 C518.588,-137.818 518.248,-137.828 519.514,-140.139 C520.36,-141.681 520.63,-141.697 521.497,-144.003 C497.808,-149.418 481.678,-147.568 459.495,-153.549 C439.667,-161.679 413.244,-168.621 392.926,-178.667 C387.374,-180.252 370.393,-185.664 370.339,-185.18 Z " fill="none" filter="url(#iRbTaM30)" />					</g>				</g>				<g>					<g>						<path d="M-36.1549,-562.048 C-36.1549,-600.348 -67.2035,-631.397 -105.504,-631.397 C-143.804,-631.397 -174.853,-600.348 -174.853,-562.048 C-174.853,-523.747 -143.804,-492.699 -105.504,-492.699 C-67.2035,-492.699 -36.1549,-523.747 -36.1549,-562.048 Z " fill="#df3634" fill-opacity="1.00" />						<defs>							<filter id="NEsQ1ukv" x="-18.64%" y="-18.64%" width="174.35%" height="174.35%" filterUnits="objectBoundingBox">								<feOffset dx="5.70" dy="5.70" in="SourceAlpha" result="shadowOffsetOuter1" />								<feGaussianBlur stdDeviation="8.61" in="shadowOffsetOuter1" result="shadowBlurOuter1" />								<feFlood flood-color="#ffd1d1" flood-opacity="0.33" />								<feComposite in2="shadowBlurOuter1" operator="in" />								<feMerge>									<feMergeNode />									<feMergeNode in="SourceGraphic" />								</feMerge>							</filter>						</defs>						<path d="M-94.7967,-571.438 C-94.7967,-588.507 -108.634,-602.344 -125.703,-602.344 C-142.773,-602.344 -156.61,-588.507 -156.61,-571.438 C-156.61,-554.368 -142.773,-540.531 -125.703,-540.531 C-108.634,-540.531 -94.7967,-554.368 -94.7967,-571.438 Z " fill="none" filter="url(#NEsQ1ukv)" />						<defs>							<filter id="2xKfddCO" x="-24.65%" y="-48.85%" width="198.15%" height="222.35%" filterUnits="objectBoundingBox">								<feOffset dx="7.80" dy="-7.80" in="SourceAlpha" result="shadowOffsetOuter1" />								<feGaussianBlur stdDeviation="11.85" in="shadowOffsetOuter1" result="shadowBlurOuter1" />								<feFlood flood-color="#000000" flood-opacity="0.21" />								<feComposite in2="shadowBlurOuter1" operator="in" />								<feMerge>									<feMergeNode />									<feMergeNode in="SourceGraphic" />								</feMerge>							</filter>						</defs>						<path d="M-47.8738,-583.243 C-47.8738,-601.049 -62.309,-615.485 -80.1158,-615.485 C-97.9225,-615.485 -112.358,-601.049 -112.358,-583.243 C-112.358,-565.436 -97.9225,-551.001 -80.1158,-551.001 C-62.309,-551.001 -47.8738,-565.436 -47.8738,-583.243 Z " fill="none" filter="url(#2xKfddCO)" />						<defs>							<filter id="TAMNLzIg" x="-15.57%" y="-15.57%" width="165.16%" height="165.16%" filterUnits="objectBoundingBox">								<feOffset dx="1.11" dy="1.11" in="SourceAlpha" result="shadowOffsetOuter1" />								<feGaussianBlur stdDeviation="1.49" in="shadowOffsetOuter1" result="shadowBlurOuter1" />								<feFlood flood-color="#ffd1d1" flood-opacity="0.45" />								<feComposite in2="shadowBlurOuter1" operator="in" />								<feMerge>									<feMergeNode />									<feMergeNode in="SourceGraphic" />								</feMerge>							</filter>						</defs>						<path d="M-125.703,-565.425 C-122.383,-565.425 -119.691,-568.117 -119.691,-571.438 C-119.691,-574.758 -122.383,-577.45 -125.703,-577.45 C-129.024,-577.45 -131.716,-574.758 -131.716,-571.438 C-131.716,-568.117 -129.024,-565.425 -125.703,-565.425 Z " fill="#ffd1d1" fill-opacity="1.00" filter="url(#TAMNLzIg)" />					</g>					<g>						<path d="M102.543,-516.073 C102.543,-554.373 71.4945,-585.422 33.1941,-585.422 C-5.10629,-585.422 -36.1549,-554.373 -36.1549,-516.073 C-36.1549,-477.772 -5.10629,-446.724 33.1941,-446.724 C71.4945,-446.724 102.543,-477.772 102.543,-516.073 Z " fill="#df3634" fill-opacity="1.00" />						<defs>							<filter id="maeMQvkA" x="-18.64%" y="-18.64%" width="174.35%" height="174.35%" filterUnits="objectBoundingBox">								<feOffset dx="5.70" dy="5.70" in="SourceAlpha" result="shadowOffsetOuter1" />								<feGaussianBlur stdDeviation="8.61" in="shadowOffsetOuter1" result="shadowBlurOuter1" />								<feFlood flood-color="#ffd1d1" flood-opacity="0.33" />								<feComposite in2="shadowBlurOuter1" operator="in" />								<feMerge>									<feMergeNode />									<feMergeNode in="SourceGraphic" />								</feMerge>							</filter>						</defs>						<path d="M43.9013,-525.463 C43.9013,-542.532 30.0639,-556.369 12.9946,-556.369 C-4.07478,-556.369 -17.9122,-542.532 -17.9122,-525.463 C-17.9122,-508.393 -4.07478,-494.556 12.9946,-494.556 C30.0639,-494.556 43.9013,-508.393 43.9013,-525.463 Z " fill="none" filter="url(#maeMQvkA)" />						<defs>							<filter id="Nv23xKeI" x="-24.65%" y="-48.85%" width="198.15%" height="222.35%" filterUnits="objectBoundingBox">								<feOffset dx="7.80" dy="-7.80" in="SourceAlpha" result="shadowOffsetOuter1" />								<feGaussianBlur stdDeviation="11.85" in="shadowOffsetOuter1" result="shadowBlurOuter1" />								<feFlood flood-color="#000000" flood-opacity="0.21" />								<feComposite in2="shadowBlurOuter1" operator="in" />								<feMerge>									<feMergeNode />									<feMergeNode in="SourceGraphic" />								</feMerge>							</filter>						</defs>						<path d="M90.8242,-537.268 C90.8242,-555.074 76.389,-569.51 58.5823,-569.51 C40.7756,-569.51 26.3404,-555.074 26.3404,-537.268 C26.3404,-519.461 40.7756,-505.026 58.5823,-505.026 C76.389,-505.026 90.8242,-519.461 90.8242,-537.268 Z " fill="none" filter="url(#Nv23xKeI)" />						<defs>							<filter id="s4da4HmX" x="-15.57%" y="-15.57%" width="165.16%" height="165.16%" filterUnits="objectBoundingBox">								<feOffset dx="1.11" dy="1.11" in="SourceAlpha" result="shadowOffsetOuter1" />								<feGaussianBlur stdDeviation="1.49" in="shadowOffsetOuter1" result="shadowBlurOuter1" />								<feFlood flood-color="#ffd1d1" flood-opacity="0.45" />								<feComposite in2="shadowBlurOuter1" operator="in" />								<feMerge>									<feMergeNode />									<feMergeNode in="SourceGraphic" />								</feMerge>							</filter>						</defs>						<path d="M12.9946,-519.45 C16.3153,-519.45 19.0074,-522.142 19.0074,-525.463 C19.0074,-528.783 16.3153,-531.475 12.9946,-531.475 C9.67378,-531.475 6.98175,-528.783 6.98175,-525.463 C6.98175,-522.142 9.67378,-519.45 12.9946,-519.45 Z " fill="#ffd1d1" fill-opacity="1.00" filter="url(#s4da4HmX)" />					</g>					<g>						<path d="M-35.1523,-657.124 L-11.9222,-722.574 L7.69553,-717.524 L-11.9222,-657.124 C-28.1453,-628.246 -28.4497,-600.209 -66.602,-585.27 L-79.4632,-608.187 C-57.2711,-602.838 -44.2087,-639.77 -35.1523,-657.124 Z " fill="#382418" fill-opacity="1.00" />						<path d="M61.4523,-615.44 L26.0863,-709.272 L46.9703,-714.472 L78.2886,-631.445 C86.4275,-599.338 105.524,-578.808 88.1663,-541.693 L63.0553,-549.441 C82.8245,-560.855 66.8455,-596.622 61.4523,-615.44 Z " fill="#382418" fill-opacity="1.00" />						<path d="M-63.0601,-766.851 C-68.1118,-751.064 -66.4172,-757.442 -71.2745,-742.262 C-72.8289,-737.404 -70.57,-734.004 -68.7484,-733.421 C-42.365,-727.672 -21.2069,-719.498 3.64765,-712.22 C34.0755,-703.309 44.6221,-704.254 74.3098,-698.483 C77.3458,-697.512 81.2466,-703.843 81.9656,-707.6 C83.8703,-717.554 82.7484,-711.331 84.4917,-719.637 C85.5393,-724.629 84.1758,-729.11 81.9656,-728.478 C54.2769,-733.991 31.8345,-739.164 5.11731,-747.713 C-18.1752,-756.505 -31.9468,-761.581 -55.8709,-772.583 C-58.2997,-773.361 -61.7,-771.102 -63.0601,-766.851 Z " fill="#382418" fill-opacity="1.00" />						<path d="M-65.6768,-735.291 C-63.5516,-740.695 -58.6688,-755.1 -55.142,-768.187 C-54.8526,-769.075 -55.3106,-772.334 -55.9243,-772.616 C-58.3531,-773.394 -61.7534,-771.135 -63.1135,-766.884 C-68.1652,-751.097 -66.4706,-757.475 -71.328,-742.295 C-72.8824,-737.437 -70.6235,-734.037 -68.8019,-733.454 C-68.0671,-733.294 -66.5309,-734.468 -65.6768,-735.291 Z " fill="#b18e68" fill-opacity="1.00" />						<defs>							<filter id="KsCAj5I5" x="0.00%" y="-1.42%" width="101.35%" height="104.27%" filterUnits="objectBoundingBox">								<feOffset dx="1.37" dy="0.00" in="SourceAlpha" result="shadowOffsetOuter1" />								<feGaussianBlur stdDeviation="0.35" in="shadowOffsetOuter1" result="shadowBlurOuter1" />								<feFlood flood-color="#7f5944" flood-opacity="0.24" />								<feComposite in2="shadowBlurOuter1" operator="in" />								<feMerge>									<feMergeNode />									<feMergeNode in="SourceGraphic" />								</feMerge>							</filter>						</defs>						<path d="M-69.6458,-747.228 C-69.7348,-746.664 -72.6378,-739.987 -71.3337,-736.547 C-71.007,-735.685 -70.2354,-733.834 -67.744,-733.212 C-65.7506,-732.76 -62.8997,-732.108 -60.4021,-731.547 C-54.6462,-730.256 -48.2626,-728.248 -47.4683,-728.032 C-31.334,-723.647 -4.93559,-714.528 16.6139,-708.823 C38.7207,-702.971 55.3757,-703.24 75.3971,-698.471 C78.603,-699.866 78.2627,-699.875 79.5296,-702.186 C80.375,-703.729 80.6448,-703.744 81.5124,-706.05 C57.8228,-711.466 41.6936,-709.616 19.5098,-715.597 C-0.317821,-723.727 -26.7412,-730.668 -47.0586,-740.715 C-52.6104,-742.3 -69.592,-747.712 -69.6458,-747.228 Z " fill="none" filter="url(#KsCAj5I5)" />					</g>				</g>			</g>		</g>	</svg>