<?xml version="1.0" encoding="utf-8" ?>	<!-- Generator: Assembly 2.2 - http://assemblyapp.co -->	<svg version="1.1" xmlns="http://www.w3.org/2000/svg" xmlns:xlink="http://www.w3.org/1999/xlink" width="2048.00" height="2048.00" viewBox="0 0 2048.0 2048.0">		<g id="document" transform="matrix(1,0,0,1,1024.0,1024.0)">			<g>				<path d="M508.479,-232.011 C507.148,-464.052 282.049,-651.55 4.18036,-651.55 C-274.514,-651.55 -506.89,-462.935 -506.89,-229.941 L-506.876,-229.941 L-506.876,723.235 L508.711,723.235 L508.711,268.056 L508.711,268.056 L720.326,268.056 C790.658,268.056 777.894,261.218 777.894,320.017 L777.894,511.25 L777.852,511.25 C777.852,569.311 832.503,616.313 892.13,616.313 C951.758,616.313 1006.41,569.311 1006.41,511.25 L960.428,511.25 L1006.41,511.25 L1006.41,268.056 C1006.41,170.294 837.263,55.0247 720.326,55.0247 L508.711,55.0247 L508.711,-232.011 L508.479,-232.011 L508.479,-232.011 Z M-776.298,-183.865 L-776.256,-183.865 C-776.256,-241.926 -830.907,-288.928 -890.535,-288.928 C-950.162,-288.928 -1004.81,-241.926 -1004.81,-183.865 L-958.832,-183.865 L-1004.81,-183.865 L-1004.81,59.3301 C-1004.81,157.091 -835.667,272.361 -718.73,272.361 L-506.89,272.361 L-506.89,59.3301 L-718.73,59.3301 C-789.062,59.3301 -776.298,66.1673 -776.298,7.36894 L-776.298,-183.865 Z " fill="#9d8bba" fill-opacity="1.00" />				<path d="M-63.4197,-151.765 C-63.4197,-273.053 -137.728,-371.376 -229.393,-371.376 C-321.058,-371.376 -395.366,-273.053 -395.366,-151.765 C-395.366,-30.4774 -321.058,67.8459 -229.393,67.8459 C-137.728,67.8459 -63.4197,-30.4774 -63.4197,-151.765 Z " fill="#4c3d2d" fill-opacity="1.00" />				<path d="M403.055,-151.765 C403.055,-273.053 328.746,-371.376 237.082,-371.376 C145.417,-371.376 71.1081,-273.053 71.1081,-151.765 C71.1081,-30.4774 145.417,67.8459 237.082,67.8459 C328.746,67.8459 403.055,-30.4774 403.055,-151.765 Z " fill="#4c3d2d" fill-opacity="1.00" />				<path d="M441.098,675.976 L343.239,701.52 L245.439,675.978 L147.609,701.52 L49.8085,675.979 L-47.962,701.522 L-145.732,675.979 L-243.528,701.522 L-341.313,675.979 L-439.118,701.522 L-506.889,683.936 L-506.889,699.264 L-439.118,716.85 L-341.313,691.307 L-243.528,716.85 L-145.732,691.307 L-47.962,716.85 L49.8085,691.307 L147.609,716.851 L245.439,691.309 L343.239,716.851 L441.098,691.31 L508.519,708.906 L508.519,693.572 L441.098,675.976 Z M441.098,612.119 L343.239,637.664 L245.439,612.121 L147.609,637.664 L49.8085,612.123 L-47.962,637.665 L-145.732,612.123 L-243.528,637.665 L-341.313,612.123 L-439.118,637.665 L-506.889,620.079 L-506.889,635.407 L-439.118,652.993 L-341.313,627.451 L-243.528,652.993 L-145.732,627.451 L-47.962,652.993 L49.8085,627.451 L147.609,652.995 L245.439,627.452 L343.239,652.995 L441.098,627.454 L508.519,645.049 L508.519,629.716 L441.098,612.119 Z M441.098,548.263 L343.239,573.807 L245.439,548.264 L147.609,573.807 L49.8085,548.266 L-47.962,573.809 L-145.732,548.266 L-243.528,573.809 L-341.313,548.266 L-439.118,573.809 L-506.889,556.223 L-506.889,571.551 L-439.118,589.137 L-341.313,563.594 L-243.528,589.137 L-145.732,563.594 L-47.962,589.137 L49.8085,563.594 L147.609,589.138 L245.439,563.596 L343.239,589.138 L441.098,563.597 L508.519,581.193 L508.519,565.859 L441.098,548.263 Z M-400.005,723.235 L-282.632,723.235 L-341.313,707.907 L-400.005,723.235 Z M441.098,644.048 L343.239,669.592 L245.439,644.049 L147.609,669.592 L49.8085,644.051 L-47.962,669.593 L-145.732,644.051 L-243.528,669.593 L-341.313,644.051 L-439.118,669.593 L-506.889,652.008 L-506.889,667.336 L-439.118,684.921 L-341.313,659.379 L-243.528,684.921 L-145.732,659.379 L-47.962,684.921 L49.8085,659.379 L147.609,684.923 L245.439,659.38 L343.239,684.923 L441.098,659.382 L508.519,676.977 L508.519,661.644 L441.098,644.048 Z M186.725,723.235 L304.134,723.235 L245.439,707.906 L186.725,723.235 Z M382.365,723.235 L499.84,723.235 L441.098,707.904 L382.365,723.235 Z M-8.86347,723.235 L108.501,723.235 L49.8085,707.907 L-8.86347,723.235 Z M-204.419,723.235 L-87.0605,723.235 L-145.732,707.907 L-204.419,723.235 Z M441.098,580.191 L343.239,605.735 L245.439,580.193 L147.609,605.735 L49.8085,580.194 L-47.962,605.737 L-145.732,580.194 L-243.528,605.737 L-341.313,580.194 L-439.118,605.737 L-506.889,588.151 L-506.889,603.479 L-439.118,621.065 L-341.313,595.522 L-243.528,621.065 L-145.732,595.522 L-47.962,621.065 L49.8085,595.522 L147.609,621.066 L245.439,595.524 L343.239,621.066 L441.098,595.525 L508.519,613.121 L508.519,597.787 L441.098,580.191 Z M499.84,403.953 L382.365,403.953 L343.239,414.166 L304.134,403.953 L186.725,403.953 L147.609,414.166 L108.501,403.953 L49.8085,403.953 L147.609,429.497 L245.439,403.954 L343.239,429.497 L441.098,403.956 L508.519,421.551 L508.519,406.218 L499.84,403.953 Z M441.098,516.335 L343.239,541.879 L245.439,516.336 L147.609,541.879 L49.8085,516.338 L-47.962,541.88 L-145.732,516.338 L-243.528,541.88 L-341.313,516.338 L-439.118,541.88 L-506.889,524.295 L-506.889,539.622 L-439.118,557.208 L-341.313,531.666 L-243.528,557.208 L-145.732,531.666 L-47.962,557.208 L49.8085,531.666 L147.609,557.21 L245.439,531.667 L343.239,557.21 L441.098,531.669 L508.519,549.264 L508.519,533.931 L441.098,516.335 Z M-506.889,715.864 L-506.889,723.239 L-478.223,723.235 L-506.889,715.864 Z M-204.419,403.953 L-145.732,403.953 L-243.528,429.495 L-341.313,403.953 L-282.632,403.953 L-243.528,414.167 L-204.419,403.953 Z M-8.86347,403.953 L49.8085,403.953 L-47.962,429.495 L-145.732,403.953 L-87.0605,403.953 L-47.962,414.167 L-8.86347,403.953 Z M441.098,452.478 L343.239,478.022 L245.439,452.48 L147.609,478.022 L49.8085,452.481 L-47.962,478.024 L-145.732,452.481 L-243.528,478.024 L-341.313,452.481 L-439.118,478.024 L-506.889,460.438 L-506.889,475.766 L-439.118,493.352 L-341.313,467.809 L-243.528,493.352 L-145.732,467.809 L-47.962,493.352 L49.8085,467.809 L147.609,493.353 L245.439,467.811 L343.239,493.353 L441.098,467.812 L508.519,485.408 L508.519,470.074 L441.098,452.478 Z M441.098,484.406 L343.239,509.95 L245.439,484.408 L147.609,509.95 L49.8085,484.409 L-47.962,509.952 L-145.732,484.409 L-243.528,509.952 L-341.313,484.409 L-439.118,509.952 L-506.889,492.366 L-506.889,507.694 L-439.118,525.28 L-341.313,499.737 L-243.528,525.28 L-145.732,499.737 L-47.962,525.28 L49.8085,499.737 L147.609,525.282 L245.439,499.739 L343.239,525.282 L441.098,499.741 L508.519,517.336 L508.519,502.002 L441.098,484.406 Z M-400.005,403.953 L-341.313,403.953 L-439.118,429.495 L-506.889,411.909 L-506.889,403.956 L-478.223,403.953 L-439.118,414.167 L-400.005,403.953 Z M441.098,420.55 L343.239,446.094 L245.439,420.551 L147.609,446.094 L49.8085,420.553 L-47.962,446.095 L-145.732,420.553 L-243.528,446.095 L-341.313,420.553 L-439.118,446.095 L-506.889,428.51 L-506.889,443.838 L-439.118,461.424 L-341.313,435.881 L-243.528,461.424 L-145.732,435.881 L-47.962,461.424 L49.8085,435.881 L147.609,461.425 L245.439,435.882 L343.239,461.425 L441.098,435.884 L508.519,453.479 L508.519,438.146 L441.098,420.55 Z " fill="#9fdded" fill-opacity="1.00" />				<path d="M-506.87,347.364 L-506.87,403.953 L508.519,403.953 L508.519,347.364 L-506.87,347.364 Z " fill="#e7dcea" fill-opacity="1.00" />			</g>		</g>	</svg>