<?xml version="1.0" encoding="utf-8" ?>	<!-- Generator: Assembly 2.2 - http://assemblyapp.co -->	<svg version="1.1" xmlns="http://www.w3.org/2000/svg" xmlns:xlink="http://www.w3.org/1999/xlink" width="2048.00" height="2048.00" viewBox="0 0 2048.0 2048.0">		<g id="document" transform="matrix(1,0,0,1,1024.0,1024.0)">			<g>				<g>					<path d="M487.402,701.158 L487.402,-402.661 L-493.706,-402.661 L-493.706,701.158 L487.402,701.158 Z " fill="#cd8c44" fill-opacity="1.00" />					<path d="M-515.243,823.936 C-515.243,884.867 -525.958,935.606 -515.243,938.685 C-490.526,945.787 481.409,938.685 523.934,938.685 C536.43,938.685 523.934,896.366 523.934,832.92 C543.45,831.352 555.872,829.552 559.567,827.517 C598.822,805.895 429.691,492.008 429.691,492.008 L-452.857,492.008 C-452.857,492.008 -602.638,789.419 -553.343,816.812 C-548.711,819.386 -535.468,821.762 -515.243,823.936 L-515.243,823.936 Z " fill="#cd8c44" fill-opacity="1.00" />				</g>				<path d="M-19.8518,-144.137 C-19.8518,-261.307 -91.6379,-356.292 -180.191,-356.292 C-268.743,-356.292 -340.529,-261.307 -340.529,-144.137 C-340.529,-26.9665 -268.743,68.0188 -180.191,68.0188 C-91.6379,68.0188 -19.8518,-26.9665 -19.8518,-144.137 Z " fill="#4c3d2d" fill-opacity="1.00" />				<path d="M419.423,-144.137 C419.423,-261.307 347.637,-356.292 259.084,-356.292 C170.532,-356.292 98.7456,-261.307 98.7456,-144.137 C98.7456,-26.9665 170.532,68.0188 259.084,68.0188 C347.637,68.0188 419.423,-26.9665 419.423,-144.137 Z " fill="#4c3d2d" fill-opacity="1.00" />				<path d="M-57.3622,186.799 C-57.3622,255.04 -15.5537,310.36 36.0197,310.36 C87.5931,310.36 129.402,255.04 129.402,186.799 C129.402,118.559 87.5931,63.2391 36.0197,63.2391 C-15.5537,63.2391 -57.3622,118.559 -57.3622,186.799 Z " fill="#4b3d2d" fill-opacity="1.00" />				<path d="M747.446,-340.385 L747.406,-340.385 C747.406,-407.477 800.201,-461.789 857.805,-461.789 C915.408,-461.789 968.204,-407.477 968.204,-340.385 L923.783,-340.385 L968.204,-340.385 L968.204,-59.3651 C968.204,53.6012 804.8,186.799 691.833,186.799 L487.184,186.799 L487.184,-59.3652 L691.833,-59.3651 C759.777,-59.3651 747.446,-51.4645 747.446,-119.408 L747.446,-340.385 L747.446,-340.385 Z " fill="#cd8c44" fill-opacity="1.00" />				<path d="M-747.446,474.419 L-747.406,474.419 C-747.406,541.511 -800.201,595.823 -857.805,595.823 C-915.408,595.823 -968.204,541.511 -968.204,474.419 L-923.783,474.419 L-968.204,474.419 L-968.204,193.399 C-968.204,80.4328 -804.8,-52.7653 -691.833,-52.7653 L-487.184,-52.7653 L-487.184,193.399 L-691.833,193.399 C-759.777,193.399 -747.446,185.499 -747.446,253.442 L-747.446,474.419 L-747.446,474.419 Z " fill="#cd8c44" fill-opacity="1.00" />				<g>					<g>						<path d="M487.184,-402.661 C487.184,-671.895 269.233,-889.845 6.00022e-06,-889.845 C-269.233,-889.845 -487.184,-671.895 -487.184,-402.661 L487.184,-402.661 Z " fill="#ffbd37" fill-opacity="1.00" />						<path d="M-663.382,-482.134 C-679.744,-442.846 -626.083,-402.661 -457.789,-402.661 L457.789,-402.661 C626.083,-402.661 665.043,-445.012 646.485,-482.134 C627.927,-519.256 626.083,-561.607 457.789,-561.607 L-457.789,-561.607 C-626.083,-561.607 -647.019,-521.422 -663.382,-482.134 Z " fill="#ffbd37" fill-opacity="1.00" />						<path d="M66.5511,-785.051 C92.948,-785.051 114.415,-806.519 114.415,-832.916 L114.415,-893.978 C114.415,-920.375 92.948,-941.843 66.5511,-941.843 L5.48831,-941.843 C-20.9086,-941.843 -42.376,-920.375 -42.376,-893.978 L-42.376,-832.916 C-42.376,-806.519 -20.9086,-785.051 5.48831,-785.051 L66.5511,-785.051 Z " fill="#ffbd37" fill-opacity="1.00" />					</g>					<g>						<path d="M-311.372,-572.536 L-438.195,-572.536 " fill="none" stroke-width="35.36" stroke="#1d7509" stroke-linecap="round" stroke-linejoin="round" />						<path d="M156.561,-572.536 L-130.322,-572.536 " fill="none" stroke-width="35.36" stroke="#1d7509" stroke-linecap="round" stroke-linejoin="round" />						<path d="M438.195,-572.536 M438.195,-572.536 L311.372,-572.536 " fill="none" stroke-width="35.36" stroke="#1d7509" stroke-linecap="round" stroke-linejoin="round" />					</g>				</g>			</g>		</g>	</svg>